HIERARCHY
ROOT SpineBase
{
  OFFSET 0.000000 0.000000 0.000000
  CHANNELS 6 Xposition Yposition Zposition Zrotation Xrotation Yrotation
  JOINT SpineMid
  {
    OFFSET -0.000000 31.596324 0.000000
    CHANNELS 3 Zrotation Xrotation Yrotation
    JOINT SpineShoulder
    {
      OFFSET 0.136621 23.298671 -0.796672
      CHANNELS 3 Zrotation Xrotation Yrotation
      JOINT Neck
      {
        OFFSET 0.097793 7.686643 -0.621649
        CHANNELS 3 Zrotation Xrotation Yrotation
        JOINT Head
        {
          OFFSET -6.172733 11.303899 2.327850
          CHANNELS 3 Zrotation Xrotation Yrotation
          End Site
          {
            OFFSET 0 0 0
          }
        }
      }
      JOINT ShoulderLeft
      {
        OFFSET -16.671896 -9.124686 7.443193
        CHANNELS 3 Zrotation Xrotation Yrotation
        JOINT ElbowLeft
        {
          OFFSET -7.939907 -18.811836 -11.709294
          CHANNELS 3 Zrotation Xrotation Yrotation
          JOINT WristLeft
          {
            OFFSET 18.139756 2.476709 -14.999369
            CHANNELS 3 Zrotation Xrotation Yrotation
            JOINT HandLeft
            {
              OFFSET 6.257042 0.912685 -3.400818
              CHANNELS 3 Zrotation Xrotation Yrotation
              JOINT HandTipLeft
              {
                OFFSET 5.428470 4.305009 -2.987474
                CHANNELS 3 Zrotation Xrotation Yrotation
                End Site
                {
                  OFFSET 0 0 0
                }
              }
              JOINT ThumbLeft
              {
                OFFSET 5.897253 -4.086580 6.501667
                CHANNELS 3 Zrotation Xrotation Yrotation
                End Site
                {
                  OFFSET 0 0 0
                }
              }
            }
          }
        }
      }
      JOINT ShoulderRight
      {
        OFFSET 11.253658 -4.391099 -12.260768
        CHANNELS 3 Zrotation Xrotation Yrotation
        JOINT ElbowRight
        {
          OFFSET -9.530800 -18.705314 -10.693840
          CHANNELS 3 Zrotation Xrotation Yrotation
          JOINT WristRight
          {
            OFFSET -16.674238 0.436003 13.819722
            CHANNELS 3 Zrotation Xrotation Yrotation
            JOINT HandRight
            {
              OFFSET -4.072018 2.670290 5.184978
              CHANNELS 3 Zrotation Xrotation Yrotation
              JOINT HandTipRight
              {
                OFFSET -4.410630 2.927946 4.661188
                CHANNELS 3 Zrotation Xrotation Yrotation
                End Site
                {
                  OFFSET 0 0 0
                }
              }
              JOINT ThumbRight
              {
                OFFSET 6.305421 6.843543 -1.402258
                CHANNELS 3 Zrotation Xrotation Yrotation
                End Site
                {
                  OFFSET 0 0 0
                }
              }
            }
          }
        }
      }
    }
  }
  JOINT HipLeft
  {
    OFFSET -4.769349 -0.544010 -0.372284
    CHANNELS 3 Zrotation Xrotation Yrotation
    JOINT KneeLeft
    {
      OFFSET -1.209007 -32.899264 8.131865
      CHANNELS 3 Zrotation Xrotation Yrotation
      JOINT AnkleLeft
      {
        OFFSET 14.147092 -38.441319 12.234773
        CHANNELS 3 Zrotation Xrotation Yrotation
        JOINT FootLeft
        {
          OFFSET -0.072778 -8.576892 -3.707606
          CHANNELS 3 Zrotation Xrotation Yrotation
          End Site
          {
            OFFSET 0 0 0
          }
        }
      }
    }
  }
  JOINT HipRight
  {
    OFFSET 5.665633 1.856261 -7.280718
    CHANNELS 3 Zrotation Xrotation Yrotation
    JOINT KneeRight
    {
      OFFSET 8.281687 -35.932218 -6.357860
      CHANNELS 3 Zrotation Xrotation Yrotation
      JOINT AnkleRight
      {
        OFFSET 7.226427 -38.244962 5.771827
        CHANNELS 3 Zrotation Xrotation Yrotation
        JOINT FootRight
        {
          OFFSET -5.748461 -4.272440 -12.068444
          CHANNELS 3 Zrotation Xrotation Yrotation
          End Site
          {
            OFFSET 0 0 0
          }
        }
      }
    }
  }
}
MOTION
Frames: 8
Frame Time: 0.033333
-39.700660 82.645650 340.078786 0.499690 0.095449 34.638688 -0.465376 0.205493 -34.638270 0.888281 0.056221 0.070699 0.360653 0.218027 -0.179783 0.000000 0.000000 0.000000 -1.379444 -1.672696 0.915359 2.869051 3.551534 -1.810266 -3.265041 -3.271721 5.049986 7.489274 2.463407 -2.369389 0.000000 0.000000 0.000000 0.000000 0.000000 0.000000 -0.672469 -0.937123 0.257296 -2.480514 -0.984993 0.951173 -0.027016 3.050162 5.200770 2.847415 0.311027 -4.444494 0.000000 0.000000 0.000000 0.000000 0.000000 0.000000 -0.465376 0.205493 -34.638270 -0.000000 0.000000 0.000000 -29.651856 32.926663 19.102677 0.000000 0.000000 0.000000 -0.465376 0.205493 -34.638270 -0.000000 0.000000 0.000000 -0.000000 0.000000 0.000000 0.000000 0.000000 0.000000
-39.734539 82.640297 340.109194 0.484687 0.063532 34.697476 -0.434662 0.223670 -34.696896 0.880688 0.055262 0.070108 0.481908 0.056037 -0.289007 0.000000 0.000000 0.000000 -1.391861 -1.631745 0.911152 2.933695 3.539531 -1.728980 -3.029122 -3.093946 4.801018 7.302566 2.220486 -1.949959 0.000000 0.000000 0.000000 0.000000 0.000000 0.000000 -0.828803 -0.932375 0.348548 -2.938089 -1.508590 1.168974 0.479751 3.859084 5.609609 3.811687 -0.034991 -6.299476 0.000000 0.000000 0.000000 0.000000 0.000000 0.000000 -0.434662 0.223670 -34.696896 -0.000000 0.000000 0.000000 -30.453788 34.137265 19.852936 0.000000 0.000000 0.000000 -0.434662 0.223670 -34.696896 -0.000000 0.000000 0.000000 -0.000000 0.000000 0.000000 0.000000 0.000000 0.000000
-39.769526 82.619763 340.146144 0.469140 0.027537 34.777306 -0.401048 0.244972 -34.776562 0.881698 0.061175 0.070069 0.701154 -0.080891 -0.402852 0.000000 0.000000 0.000000 -1.417625 -1.591598 0.906540 2.941068 3.466256 -1.577677 -2.906704 -2.915122 4.194975 7.028550 1.917977 -1.219830 0.000000 0.000000 0.000000 0.000000 0.000000 0.000000 -0.881772 -0.060090 -0.071002 -3.463785 -2.915912 1.872717 1.178355 4.630483 5.527157 1.792273 -1.860345 -6.510823 0.000000 0.000000 0.000000 0.000000 0.000000 0.000000 -0.401048 0.244972 -34.776562 -0.000000 0.000000 0.000000 -31.631022 36.104220 21.010579 0.000000 0.000000 0.000000 -0.401048 0.244972 -34.776562 -0.000000 0.000000 0.000000 -0.000000 0.000000 0.000000 0.000000 0.000000 0.000000
-39.807597 82.584233 340.175992 0.461253 0.000329 34.839638 -0.378765 0.263234 -34.838769 0.889426 0.077565 0.070355 0.920593 -0.218309 -0.512252 0.000000 0.000000 0.000000 -1.363068 -1.495744 0.820227 2.808978 3.294289 -1.323626 -2.632656 -2.680534 3.864308 6.985075 1.768392 -0.842894 0.000000 0.000000 0.000000 0.000000 0.000000 0.000000 -0.889521 -0.076463 -0.071550 -3.971549 -3.357024 2.074182 1.612261 5.135433 5.639157 1.098777 -2.684409 -7.021120 0.000000 0.000000 0.000000 0.000000 0.000000 0.000000 -0.378765 0.263234 -34.838769 -0.000000 0.000000 0.000000 -33.358637 38.449362 22.656854 0.000000 0.000000 0.000000 -0.378765 0.263234 -34.838769 -0.000000 0.000000 0.000000 -0.000000 0.000000 0.000000 0.000000 0.000000 0.000000
-39.842332 82.553451 340.177604 0.467006 -0.006979 34.947193 -0.378801 0.273230 -34.946261 0.918886 0.101712 0.072218 1.049236 -0.296505 -0.573546 0.000000 0.000000 0.000000 -1.273773 -1.313916 0.657823 2.493558 2.934658 -0.983694 -2.301716 -2.367197 3.409212 6.482193 1.876140 -1.032179 0.000000 0.000000 0.000000 0.000000 0.000000 0.000000 -0.919015 -0.100541 -0.073840 -3.832358 -3.229201 1.806587 1.330796 4.917689 6.002096 0.708722 -3.325019 -7.686752 0.000000 0.000000 0.000000 0.000000 0.000000 0.000000 -0.378801 0.273230 -34.946261 -0.000000 0.000000 0.000000 -35.399699 41.093470 24.641397 0.000000 0.000000 0.000000 -0.378801 0.273230 -34.946261 -0.000000 0.000000 0.000000 -0.000000 0.000000 0.000000 0.000000 0.000000 0.000000
-39.871055 82.550256 340.159246 0.493728 -0.005846 35.096680 -0.400602 0.288653 -35.095646 0.970758 0.117539 0.076034 1.062580 -0.254844 -0.559898 0.000000 0.000000 0.000000 -1.173846 -1.063730 0.447750 2.074862 2.465068 -0.661273 -1.940128 -1.971430 2.612457 6.316381 2.066647 -0.715185 0.000000 0.000000 0.000000 0.000000 0.000000 0.000000 -1.835930 0.236506 0.236814 -2.781632 -3.374387 0.913080 1.944778 5.526989 5.920800 -1.066478 -4.685370 -7.120406 0.000000 0.000000 0.000000 0.000000 0.000000 0.000000 -0.400602 0.288653 -35.095646 -0.000000 0.000000 0.000000 -33.257401 39.417829 22.769666 0.000000 0.000000 0.000000 -0.400602 0.288653 -35.095646 -0.000000 0.000000 0.000000 -0.000000 0.000000 0.000000 0.000000 0.000000 0.000000
-39.908056 82.563007 340.149168 0.517267 -0.013750 35.109014 -0.415251 0.308743 -35.107833 1.012620 0.118548 0.079356 1.042931 -0.134456 -0.504051 0.000000 0.000000 0.000000 -1.012785 -0.117127 -0.081439 1.624268 1.346756 -0.055600 -1.712560 -1.685469 1.965440 6.029541 2.319716 -0.677818 0.000000 0.000000 0.000000 0.000000 0.000000 0.000000 -1.994955 0.376747 0.229656 -0.596379 -1.789190 -0.235820 0.617482 3.379949 4.839247 -3.472792 -4.889779 -3.305573 0.000000 0.000000 0.000000 0.000000 0.000000 0.000000 -0.415251 0.308743 -35.107833 -0.000000 0.000000 0.000000 -33.113181 39.525360 22.687172 0.000000 0.000000 0.000000 -0.415251 0.308743 -35.107833 -0.000000 0.000000 0.000000 -0.000000 0.000000 0.000000 0.000000 0.000000 0.000000
-39.934408 82.582473 340.120116 0.559300 -0.013078 35.122294 0.199782 -0.170972 -35.093541 0.246111 0.147391 0.055172 0.914800 0.047416 -0.403497 0.000000 0.000000 0.000000 -1.067269 -0.107950 -0.085932 1.371901 1.134278 -0.014779 -1.574467 -1.487998 1.615122 6.228065 2.561306 -0.575403 0.000000 0.000000 0.000000 0.000000 0.000000 0.000000 -2.144511 0.293855 0.325340 0.495755 -0.892524 -1.073513 -0.557045 2.047449 5.168375 -2.986891 -3.591373 -1.762435 0.000000 0.000000 0.000000 0.000000 0.000000 0.000000 -0.449947 0.332472 -35.120925 -0.000000 0.000000 0.000000 -33.081788 39.543262 22.668153 0.000000 0.000000 0.000000 -0.449947 0.332472 -35.120925 -0.000000 0.000000 0.000000 -0.000000 0.000000 0.000000 0.000000 0.000000 0.000000
